<svg width="24" height="24" viewBox="0 0 24 24" fill="none" xmlns="http://www.w3.org/2000/svg">
<path fill-rule="evenodd" clip-rule="evenodd" d="M12.41 2.58L21.41 11.58C21.77 11.94 22 12.45 22 13C22 13.55 21.78 14.05 21.41 14.41L14.41 21.41C14.05 21.78 13.55 22 13 22C12.45 22 11.95 21.78 11.59 21.42L2.58997 12.42C2.21997 12.05 2 11.55 2 11V4C2 2.89999 2.90002 2 4 2H11C11.55 2 12.05 2.22 12.41 2.58ZM4 11L13 20.01L20 12.99L11 3.99001V4H4V11ZM6.5 5C5.67163 5 5 5.67157 5 6.5C5 7.32843 5.67163 8 6.5 8C7.32837 8 8 7.32843 8 6.5C8 5.67157 7.32837 5 6.5 5ZM9.5 14C9.13 13.62 8.90002 13.12 8.90002 12.55C8.90002 11.42 9.82007 10.5 10.9501 10.5C11.51 10.5 12.03 10.73 12.4 11.11L13 11.7L13.6 11.1C13.97 10.73 14.48 10.5 15.05 10.5C16.1801 10.5 17.1 11.42 17.1 12.55C17.1 13.11 16.87 13.63 16.5 14L13 17.5L9.5 14Z" fill="#59698F" fill-opacity="1"/>
</svg>
