<svg width="29" height="29" viewBox="0 0 29 29" fill="none" xmlns="http://www.w3.org/2000/svg">
<path fill-rule="evenodd" clip-rule="evenodd" d="M18.9261 4.55956C16.7841 3.6051 14.3908 3.36865 12.1034 3.88547C9.81592 4.40229 7.75681 5.64469 6.23314 7.42738C4.70947 9.21006 3.80289 11.4375 3.64859 13.7776C3.49428 16.1176 4.10054 18.4448 5.37693 20.4121C6.65332 22.3794 8.53146 23.8815 10.7312 24.6942C12.931 25.5069 15.3346 25.5867 17.5835 24.9218C19.8323 24.2569 21.806 22.8828 23.2102 21.0045C24.6143 19.1263 25.3737 16.8444 25.375 14.4993V13.3883C25.375 12.721 25.916 12.18 26.5833 12.18C27.2507 12.18 27.7917 12.721 27.7917 13.3883V14.5C27.79 17.3662 26.8619 20.1559 25.1457 22.4515C23.4296 24.7472 21.0173 26.4266 18.2687 27.2393C15.5201 28.052 12.5824 27.9544 9.89374 26.9611C7.20512 25.9678 4.90961 24.132 3.34958 21.7275C1.78954 19.323 1.04857 16.4786 1.23716 13.6185C1.42575 10.7585 2.5338 8.03606 4.39606 5.85722C6.25832 3.67838 8.775 2.15989 11.5708 1.52822C14.3666 0.89655 17.2916 1.18555 19.9097 2.35211C20.5193 2.62372 20.7933 3.33805 20.5217 3.94763C20.25 4.5572 19.5357 4.83117 18.9261 4.55956Z" fill="#48BB78"/>
<path fill-rule="evenodd" clip-rule="evenodd" d="M27.4373 3.97849C27.9095 4.45013 27.9098 5.21521 27.4382 5.68733L15.3549 17.7827C15.1283 18.0095 14.8209 18.137 14.5003 18.1371C14.1797 18.1372 13.8723 18.0099 13.6456 17.7832L10.0206 14.1582C9.54872 13.6863 9.54872 12.9212 10.0206 12.4493C10.4925 11.9774 11.2576 11.9774 11.7294 12.4493L14.4996 15.2195L25.7285 3.97934C26.2002 3.50722 26.9652 3.50684 27.4373 3.97849Z" fill="#48BB78"/>
</svg>
