<svg width="24" height="24" viewBox="0 0 24 24" fill="none" xmlns="http://www.w3.org/2000/svg">
<path fill-rule="evenodd" clip-rule="evenodd" d="M4.46447 15.4645C5.40215 14.5268 6.67392 14 8 14H16C17.3261 14 18.5979 14.5268 19.5355 15.4645C20.4732 16.4021 21 17.6739 21 19V21C21 21.5523 20.5523 22 20 22C19.4477 22 19 21.5523 19 21V19C19 18.2043 18.6839 17.4413 18.1213 16.8787C17.5587 16.3161 16.7956 16 16 16H8C7.20435 16 6.44129 16.3161 5.87868 16.8787C5.31607 17.4413 5 18.2043 5 19V21C5 21.5523 4.55228 22 4 22C3.44772 22 3 21.5523 3 21V19C3 17.6739 3.52678 16.4021 4.46447 15.4645Z" fill="#59698F"/>
<path fill-rule="evenodd" clip-rule="evenodd" d="M12 3.99998C10.3431 3.99998 9 5.34313 9 6.99998C9 8.65684 10.3431 9.99998 12 9.99998C13.6569 9.99998 15 8.65684 15 6.99998C15 5.34313 13.6569 3.99998 12 3.99998ZM7 6.99998C7 4.23856 9.23858 1.99998 12 1.99998C14.7614 1.99998 17 4.23856 17 6.99998C17 9.76141 14.7614 12 12 12C9.23858 12 7 9.76141 7 6.99998Z" fill="#59698F"/>
</svg>
