<svg width="29" height="29" viewBox="0 0 29 29" fill="none" xmlns="http://www.w3.org/2000/svg">
<path fill-rule="evenodd" clip-rule="evenodd" d="M14.5 3.62504C8.49391 3.62504 3.62501 8.49394 3.62501 14.5C3.62501 20.5061 8.49391 25.375 14.5 25.375C20.5061 25.375 25.375 20.5061 25.375 14.5C25.375 8.49394 20.5061 3.62504 14.5 3.62504ZM1.20834 14.5C1.20834 7.15926 7.15922 1.20837 14.5 1.20837C21.8408 1.20837 27.7917 7.15926 27.7917 14.5C27.7917 21.8408 21.8408 27.7917 14.5 27.7917C7.15922 27.7917 1.20834 21.8408 1.20834 14.5Z" fill="#E53E3E"/>
<path fill-rule="evenodd" clip-rule="evenodd" d="M18.9794 10.0206C19.4513 10.4925 19.4513 11.2576 18.9794 11.7295L11.7294 18.9795C11.2575 19.4513 10.4925 19.4513 10.0206 18.9795C9.54871 18.5076 9.54871 17.7425 10.0206 17.2706L17.2706 10.0206C17.7425 9.54874 18.5075 9.54874 18.9794 10.0206Z" fill="#E53E3E"/>
<path fill-rule="evenodd" clip-rule="evenodd" d="M10.0206 10.0206C10.4925 9.54874 11.2575 9.54874 11.7294 10.0206L18.9794 17.2706C19.4513 17.7425 19.4513 18.5076 18.9794 18.9795C18.5075 19.4513 17.7425 19.4513 17.2706 18.9795L10.0206 11.7295C9.54871 11.2576 9.54871 10.4925 10.0206 10.0206Z" fill="#E53E3E"/>
</svg>
